<?xml version="1.0" encoding="utf-8"?>
<!-- Generator: Adobe Illustrator 19.2.0, SVG Export Plug-In . SVG Version: 6.00 Build 0)  -->
<svg version="1.1" id="Layer_2" xmlns="http://www.w3.org/2000/svg" xmlns:xlink="http://www.w3.org/1999/xlink" x="0px" y="0px"
	 viewBox="0 0 166.2 165.6" style="enable-background:new 0 0 166.2 165.6;" xml:space="preserve">
<style type="text/css">
	.st0{fill:url(#SVGID_1_);}
</style>
<linearGradient id="SVGID_1_" gradientUnits="userSpaceOnUse" x1="83.1" y1="0.4" x2="83.1" y2="166" gradientTransform="matrix(1 0 0 -1 0 166)">
	<stop  offset="0" style="stop-color:#73562B"/>
	<stop  offset="1" style="stop-color:#BC9E5E"/>
</linearGradient>
<path class="st0" d="M94.1,4.1c39,5.4,68.2,38.8,68.2,78.4c0,43.7-35.5,79.2-79.2,79.2S3.9,126.2,3.9,82.5c0-39.6,29.2-73,68.2-78.4
	l8.3,8.3l2.7,2.7l2.7-2.7L94.1,4.1 M92.7,0L83,9.7L73.4,0C32.1,4.8,0,39.9,0,82.5c0,45.9,37.2,83.1,83.1,83.1s83.1-37.2,83.1-83.1
	C166.2,39.9,134.1,4.8,92.7,0L92.7,0z"/>
</svg>
