<?xml version="1.0" encoding="utf-8"?>
<!-- Generator: Adobe Illustrator 21.1.0, SVG Export Plug-In . SVG Version: 6.00 Build 0)  -->
<svg version="1.1" id="Layer_2" xmlns="http://www.w3.org/2000/svg" xmlns:xlink="http://www.w3.org/1999/xlink" x="0px" y="0px"
	 viewBox="0 0 200 114.3" style="enable-background:new 0 0 200 114.3;" xml:space="preserve">
<style type="text/css">
	.st0{fill:#155F75;}
	.st1{fill:#75562C;}
</style>
<rect x="89.1" y="47.6" transform="matrix(0.7071 0.7071 -0.7071 0.7071 70.9105 -53.6975)" class="st0" width="22.3" height="22.3"/>
<path class="st1" d="M178.5,58.7L148,28.2l-17,17l-30.7-30.7L69.6,45.2l-17-17L22,58.7l30.6,30.6l17-17l30.7,30.7l30.7-30.7l17,17
	L178.5,58.7z M52.6,82.2L29.1,58.7l23.5-23.5l13.5,13.5l-10,10l10,10L52.6,82.2z M63.1,58.7l37.1-37.1l37.1,37.1l-37.1,37.1
	L63.1,58.7z M144.5,58.7l-10-10L148,35.3l23.5,23.5L148,82.2l-13.5-13.5L144.5,58.7z"/>
</svg>
