<svg xmlns="http://www.w3.org/2000/svg" viewBox="0 0 160 138.1">
  <path fill="#C7B184" d="M122.9 80.5h-5.7c-1.6 0-2.9 1.3-2.9 2.9v28.8c0 7.9-6.4 14.4-14.3 14.4H25.7c-7.9 0-14.3-6.5-14.3-14.4V37.4c0-7.9 6.4-14.4 14.3-14.4h62.9c1.6 0 2.9-1.3 2.9-2.9v-5.8c0-1.6-1.2-2.9-2.9-2.9H25.7C11.5 11.5 0 23.1 0 37.4v74.8c0 14.3 11.5 25.9 25.7 25.9H100c14.2 0 25.7-11.6 25.7-25.9V83.4c0-1.6-1.2-2.9-2.8-2.9zM154.3 0h-45.7c-3.1 0-5.7 2.6-5.7 5.8 0 1.5.6 3 1.7 4l15.7 15.8-58.2 58.6c-.5.5-.9 1.3-.9 2.1 0 .7.4 1.5.9 2.1l10.2 10.2c.5.5 1.3.9 2.1.9s1.5-.4 2.1-.9L134.6 40l15.7 15.8c1.1 1.1 2.5 1.7 4 1.7 3.1 0 5.7-2.6 5.7-5.8v-46c0-3.1-2.6-5.7-5.7-5.7z" id="_xF08E_"/>
</svg>
